<?xml version="1.0" standalone="no"?>
<!DOCTYPE svg PUBLIC "-//W3C//DTD SVG 20010904//EN"
 "http://www.w3.org/TR/2001/REC-SVG-20010904/DTD/svg10.dtd">
<svg version="1.0" xmlns="http://www.w3.org/2000/svg"
 width="80.000000pt" height="80.000000pt" viewBox="0 0 80.000000 80.000000"
 preserveAspectRatio="xMidYMid meet">
<metadata>
Created by potrace 1.14, written by Peter Selinger 2001-2017
</metadata>
<g transform="translate(0.000000,80.000000) scale(0.100000,-0.100000)"
fill="#000000" stroke="none">
<path d="M0 400 l0 -400 400 0 400 0 0 400 0 400 -400 0 -400 0 0 -400z m509
291 c57 -30 65 -44 38 -69 l-23 -22 -39 20 c-120 61 -245 -42 -206 -170 29
-96 152 -130 231 -63 32 26 38 43 18 43 -13 1 -78 55 -78 65 0 3 42 4 93 3
l92 -3 -4 -30 c-16 -135 -171 -223 -299 -169 -109 45 -163 178 -117 287 16 39
96 114 128 120 58 11 130 6 166 -12z m-272 -478 c16 -6 15 -8 -7 -13 -27 -6
-34 -30 -11 -38 8 -3 11 0 7 7 -5 7 1 11 13 11 24 0 27 -10 9 -28 -18 -18 -46
-14 -58 7 -13 25 -13 27 6 45 18 18 17 18 41 9z m189 -15 l7 -23 8 23 c10 25
29 21 30 -6 0 -13 3 -12 11 6 13 26 34 30 23 5 -4 -10 -10 -28 -12 -40 -7 -29
-21 -29 -32 -1 l-8 23 -7 -23 c-4 -12 -11 -22 -16 -22 -8 0 -30 53 -30 71 0
18 19 8 26 -13z m-108 -21 c2 -11 -3 -17 -15 -18 -16 0 -16 -1 2 -9 19 -8 19
-9 -3 -9 -25 -1 -38 20 -28 45 8 20 40 14 44 -9z m60 14 c21 -13 10 -46 -16
-49 -27 -4 -40 22 -22 43 14 17 20 18 38 6z m202 -22 c0 -25 -4 -29 -29 -29
-16 0 -31 6 -34 13 -8 21 12 45 38 45 21 0 25 -5 25 -29z m30 14 c1 -16 2 -16
15 1 23 30 28 13 9 -28 -19 -39 -33 -47 -33 -18 1 9 -2 27 -6 40 -5 14 -3 22
4 22 6 0 11 -8 11 -17z"/>
<path d="M350 170 c0 -5 5 -10 10 -10 6 0 10 5 10 10 0 6 -4 10 -10 10 -5 0
-10 -4 -10 -10z"/>
<path d="M535 171 c-6 -11 9 -23 19 -14 9 9 7 23 -3 23 -6 0 -12 -4 -16 -9z"/>
</g>
</svg>
