<?xml version="1.0" encoding="utf-8"?>
<!-- Generator: Adobe Illustrator 23.0.2, SVG Export Plug-In . SVG Version: 6.00 Build 0)  -->
<svg version="1.1" id="Layer_1" xmlns="http://www.w3.org/2000/svg" xmlns:xlink="http://www.w3.org/1999/xlink" x="0px" y="0px"
	 viewBox="0 0 238.38 73.34" style="enable-background:new 0 0 238.38 73.34;" xml:space="preserve">
<style type="text/css">
	.st0{fill:#FFFFFF;}
	.st1{fill:#009BDB;}
	.st2{fill:#00AE9D;}
	.st3{fill:#FBAB18;}
	.st4{fill:#ED1B2F;}
	.st5{fill:#8197A6;}
	.st6{fill:#335E6F;}
	.st7{fill:#003247;}
</style>
<g>
	<path class="st0" d="M23.43,20.41c-0.1,0.54-0.44,0.74-1.08,0.64c0,0-4.03-0.98-6.98-0.98c-3.59,0-5.8,1.38-6.44,4.57l-0.25,1.23
		c-0.1,0.39-0.1,0.74-0.1,1.08c0,1.97,1.18,3.2,3,3.88l2.95,1.13c2.95,1.13,5.7,3.34,5.7,7.92c0,0.69-0.05,1.43-0.2,2.21l-0.25,1.48
		c-1.08,6.64-5.11,8.46-11.16,8.46c-4.18,0-7.82-1.28-7.82-1.28c-0.59-0.1-0.88-0.49-0.79-1.03l0.44-2.21
		c0.1-0.54,0.39-0.79,1.03-0.69c0,0,4.28,1.28,7.18,1.28c3.74,0,6.39-1.33,7.03-5.02l0.25-1.47c0.1-0.54,0.15-0.98,0.15-1.43
		c0-2.36-1.28-3.64-3.59-4.52l-3-1.13c-2.61-0.98-5.16-3.05-5.16-6.98c0-0.69,0.1-1.38,0.25-2.16l0.25-1.23
		c1.18-5.8,5.11-8.02,10.87-8.02c3.98,0,7.33,1.08,7.33,1.08c0.59,0.15,0.84,0.54,0.74,1.08L23.43,20.41z"/>
	<path class="st0" d="M45.11,35.31l-1.57,8.85c-0.93,5.36-3.98,7.38-9.44,7.38c-1.03,0-3.15-0.15-5.06-0.34l-1.57,8.75
		c-0.1,0.54-0.44,0.93-0.98,0.93h-2.41c-0.54,0-0.88-0.39-0.79-0.93l5.7-32.06c0.1-0.54,0.44-0.93,0.98-0.93h2.41
		c0.54,0,0.94,0.39,0.79,0.93l-0.05,0.2c1.57-0.89,3.44-1.62,5.46-1.62c4.57,0,6.74,2.66,6.74,6.59
		C45.3,33.79,45.25,34.53,45.11,35.31z M37.93,30.15c-1.72,0-3.79,0.74-5.46,1.48l-2.85,16.23h4.67c3.34,0,4.72-1.57,5.16-4.18
		l1.57-8.85c0.1-0.49,0.15-1.03,0.15-1.48C41.17,31.48,40.34,30.15,37.93,30.15z"/>
	<path class="st0" d="M65.81,50.51c-0.1,0.54-0.39,1.03-0.93,1.03h-2.46c-0.54,0-0.93-0.3-0.84-0.84l0.05-0.25
		c-1.43,0.88-3.1,1.57-4.97,1.57c-4.62,0-6.74-2.61-6.74-6.54c0-0.74,0.05-1.52,0.2-2.31l1.57-8.85c0.93-5.16,3.69-7.87,9.24-7.87
		c3.49,0,7.92,0.98,7.92,0.98c0.59,0.05,0.93,0.39,0.84,0.93L65.81,50.51z M61.04,30.15c-3.39,0-4.82,2.07-5.26,4.67l-1.57,8.85
		c-0.1,0.49-0.15,0.98-0.15,1.43c0,1.92,0.89,3.25,3.25,3.25c1.62,0,3.44-0.74,4.97-1.53l2.85-16.18
		C63.74,30.35,62.22,30.15,61.04,30.15z"/>
	<path class="st0" d="M89.75,30.2c-0.1,0.54-0.44,0.79-1.08,0.69c0,0-2.11-0.49-4.08-0.49c-3.34,0-4.82,2.11-5.31,4.92l-1.38,7.87
		c-0.1,0.49-0.15,0.98-0.15,1.43c0,2.06,1.03,3.49,3.69,3.49c2.12,0,4.33-0.29,4.33-0.29c0.59-0.05,0.88,0.25,0.79,0.79l-0.34,1.97
		c-0.1,0.54-0.25,0.88-0.98,1.03c0,0-1.92,0.44-4.23,0.44c-4.92,0-7.38-2.8-7.38-7.08c0-0.74,0.05-1.47,0.2-2.26l1.38-7.87
		c0.98-5.51,4.03-8.36,9.59-8.36c2.36,0,4.57,0.64,4.57,0.64c0.64,0.15,0.89,0.54,0.79,1.08L89.75,30.2z"/>
	<path class="st0" d="M100.17,41.16l-4.23,0.05c-0.05,0.54-0.1,1.13-0.1,1.67c0,2.8,1.03,5.31,4.77,5.31c1.97,0,5.65-0.88,5.65-0.88
		c0.54-0.1,0.84,0.25,0.74,0.79l-0.34,2.07c-0.1,0.54-0.3,0.89-0.93,0.98c0,0-3,0.88-5.46,0.88c-6.39,0-8.51-4.13-8.51-9
		c0-1.13,0.1-2.26,0.3-3.39l0.34-2.07c1.18-7.18,4.57-11.11,10.72-11.11c4.82,0,7.03,2.51,7.03,6.49
		C110.15,38.26,107.4,41.07,100.17,41.16z M102.78,30c-3.93,0-5.31,3.25-6.2,7.67l-0.05,0.25l3.64-0.05
		c4.03-0.05,6.05-1.52,6.05-4.57C106.22,31.43,105.28,30,102.78,30z"/>
	<path class="st0" d="M131.98,50.61c-0.1,0.54-0.44,0.93-0.98,0.93h-17.16c-0.54,0-0.89-0.39-0.79-0.93l0.39-2.07
		c0.1-0.54,0.44-0.93,0.98-0.93h7.03l4.72-26.8l-7.72,1.33c-0.44,0.1-0.84-0.2-0.74-0.74l0.39-2.11c0.1-0.54,0.54-0.74,1.08-0.88
		l7.72-1.77h3.25c0.54,0,0.89,0.39,0.79,0.93l-5.31,30.05h5.95c0.54,0,0.89,0.39,0.79,0.93L131.98,50.61z"/>
	<path class="st0" d="M160.35,25.97l-2.75,15.74c-1.33,7.47-5.02,10.33-11.65,10.33c-2.56,0-6.39-0.88-6.39-0.88
		c-0.54-0.1-0.79-0.39-0.69-0.93l0.39-2.02c0.1-0.54,0.44-0.84,0.98-0.74c0,0,4.18,0.89,6.1,0.89c4.77,0,6.49-3.39,7.18-7.13
		l0.98-5.46c-1.82,1.18-4.13,2.21-6.49,2.21c-4.72,0-6.98-2.9-6.98-6.98c0-0.69,0.1-1.38,0.2-2.11l0.64-3.89
		c0.98-5.95,4.57-8.85,10.43-8.85c5.26,0,8.26,2.95,8.26,7.62C160.55,24.45,160.5,25.18,160.35,25.97z M151.89,20.07
		c-3.64,0-5.41,2.51-5.95,5.66l-0.64,3.64c-0.05,0.39-0.1,0.79-0.1,1.18c0,2.02,1.03,3.49,3.69,3.49c1.87,0,4.33-0.93,6.24-1.82
		l1.13-6.49c0.1-0.49,0.15-1.03,0.15-1.48C156.42,21.84,155.14,20.07,151.89,20.07z"/>
	<path class="st0" d="M203.53,37.37L203.53,37.37L203.53,37.37L203.53,37.37L203.53,37.37l-4.12,23.34l21.9-7.94
		c0.12-0.04,0.22-0.11,0.3-0.2l0,0l0,0c0.1-0.1,0.17-0.23,0.19-0.38l4.29-23.17L203.53,37.37z"/>
	<path class="st1" d="M223.39,52.83l8.34,7l6.18-35.05l-10.18,3.7l-4.26,24C223.46,52.6,223.43,52.72,223.39,52.83z"/>
	<path class="st2" d="M177.97,44.41l4.24-23.91l-8.37-7.02l-6.18,35.05l10.27-3.74C177.93,44.67,177.94,44.54,177.97,44.41z"/>
	<path class="st3" d="M199.07,62.65l-1.88,10.66l33.45-12.17l-8.31-6.98c-0.14,0.08-0.28,0.16-0.43,0.21L199.07,62.65z"/>
	<path class="st4" d="M178.49,46.4l-10.25,3.73l27.27,22.88l1.88-10.66L178.8,46.73C178.69,46.63,178.59,46.52,178.49,46.4z"/>
	<path class="st5" d="M227.06,26.91l10.27-3.74L210.06,0.3l-1.9,10.79c0.14,0.08,0.27,0.16,0.39,0.26L227.06,26.91z"/>
	<path class="st6" d="M206.48,10.83L208.38,0l-33.45,12.17l8.37,7.03l22.82-8.28C206.24,10.88,206.36,10.85,206.48,10.83z"/>
	<path class="st0" d="M201.86,36.99l-18.15-15.22l-4.07,22.94c-0.02,0.12-0.01,0.24,0.03,0.36l0,0l0,0
		c0.04,0.14,0.12,0.26,0.23,0.35l17.83,15L201.86,36.99L201.86,36.99L201.86,36.99L201.86,36.99L201.86,36.99L201.86,36.99z"/>
	<polygon class="st0" points="207.46,12.66 207.45,12.65 207.05,12.32 184.82,20.46 202.96,35.68 225.21,27.59 	"/>
	<circle class="st7" cx="202.79" cy="36.66" r="13.91"/>
	<g>
		<path class="st0" d="M212.03,37.57c-0.1,0.54-0.45,0.94-0.99,0.94h-6.58l-1.24,6.97c-0.1,0.54-0.49,0.94-1.04,0.94h-2.18
			c-0.54,0-0.84-0.4-0.74-0.94l1.24-6.97h-6.48c-0.54,0-0.89-0.4-0.79-0.94l0.3-1.83c0.1-0.54,0.5-0.94,1.04-0.94h6.58l1.24-6.97
			c0.1-0.54,0.44-0.94,0.99-0.94h2.18c0.54,0,0.89,0.4,0.79,0.94l-1.24,6.97h6.48c0.54,0,0.84,0.4,0.74,0.94L212.03,37.57z"/>
	</g>
</g>
</svg>
